<mxfile host="app.diagrams.net" modified="2020-08-10T17:29:44.720Z" agent="5.0 (Windows NT 10.0; Win64; x64) AppleWebKit/537.36 (KHTML, like Gecko) Chrome/84.0.4147.105 Safari/537.36" etag="w2MGI-1AU6CTzBUESUkC" version="13.6.2" type="github">
  <diagram id="71T5WP0qWMnHn1yJbpic" name="Page-1">
    <mxGraphModel dx="868" dy="450" grid="1" gridSize="10" guides="1" tooltips="1" connect="1" arrows="1" fold="1" page="1" pageScale="1" pageWidth="850" pageHeight="1100" math="0" shadow="0">
      <root>
        <mxCell id="0" />
        <mxCell id="1" parent="0" />
        <mxCell id="7JcKZ25VjetRKdXFp0mx-1" value="" style="rounded=0;whiteSpace=wrap;html=1;" vertex="1" parent="1">
          <mxGeometry width="800" height="500" as="geometry" />
        </mxCell>
        <mxCell id="7JcKZ25VjetRKdXFp0mx-2" value="" style="rounded=0;whiteSpace=wrap;html=1;" vertex="1" parent="1">
          <mxGeometry x="10" y="10" width="780" height="50" as="geometry" />
        </mxCell>
        <mxCell id="7JcKZ25VjetRKdXFp0mx-3" value="&lt;font style=&quot;font-size: 36px&quot; face=&quot;Georgia&quot;&gt;A&lt;/font&gt;&lt;font style=&quot;font-size: 24px&quot; face=&quot;Georgia&quot;&gt;ce&lt;/font&gt;" style="text;html=1;strokeColor=none;fillColor=none;align=center;verticalAlign=middle;whiteSpace=wrap;rounded=0;" vertex="1" parent="1">
          <mxGeometry x="40" y="16" width="41" height="38" as="geometry" />
        </mxCell>
        <mxCell id="7JcKZ25VjetRKdXFp0mx-4" value="" style="shape=image;html=1;verticalAlign=top;verticalLabelPosition=bottom;labelBackgroundColor=#ffffff;imageAspect=0;aspect=fixed;image=https://cdn4.iconfinder.com/data/icons/wirecons-free-vector-icons/32/menu-alt-128.png" vertex="1" parent="1">
          <mxGeometry x="710" y="10" width="50" height="50" as="geometry" />
        </mxCell>
        <mxCell id="7JcKZ25VjetRKdXFp0mx-5" value="&lt;font style=&quot;font-size: 24px&quot;&gt;&lt;b&gt;CHANGE YOUR PASSWORD&lt;/b&gt;&lt;/font&gt;" style="text;html=1;strokeColor=none;fillColor=none;align=center;verticalAlign=middle;whiteSpace=wrap;rounded=0;" vertex="1" parent="1">
          <mxGeometry x="10" y="120" width="350" height="20" as="geometry" />
        </mxCell>
        <mxCell id="7JcKZ25VjetRKdXFp0mx-6" value="" style="rounded=1;whiteSpace=wrap;html=1;" vertex="1" parent="1">
          <mxGeometry x="210" y="180" width="350" height="40" as="geometry" />
        </mxCell>
        <mxCell id="7JcKZ25VjetRKdXFp0mx-7" value="" style="rounded=1;whiteSpace=wrap;html=1;" vertex="1" parent="1">
          <mxGeometry x="210" y="280" width="350" height="40" as="geometry" />
        </mxCell>
        <mxCell id="7JcKZ25VjetRKdXFp0mx-8" value="&lt;font style=&quot;font-size: 18px&quot;&gt;New Password&lt;/font&gt;" style="text;html=1;strokeColor=none;fillColor=none;align=center;verticalAlign=middle;whiteSpace=wrap;rounded=0;" vertex="1" parent="1">
          <mxGeometry x="51" y="190" width="139" height="20" as="geometry" />
        </mxCell>
        <mxCell id="7JcKZ25VjetRKdXFp0mx-9" value="&lt;font style=&quot;font-size: 18px&quot;&gt;Confirm Password&lt;/font&gt;" style="text;html=1;strokeColor=none;fillColor=none;align=center;verticalAlign=middle;whiteSpace=wrap;rounded=0;" vertex="1" parent="1">
          <mxGeometry x="51" y="290" width="159" height="20" as="geometry" />
        </mxCell>
        <mxCell id="7JcKZ25VjetRKdXFp0mx-10" value="Go Back" style="labelPosition=center;verticalLabelPosition=middle;align=center;html=1;shape=mxgraph.basic.button;dx=3;fillColor=#f5f5f5;strokeColor=#666666;fontColor=#333333;" vertex="1" parent="1">
          <mxGeometry x="450" y="340" width="110" height="60" as="geometry" />
        </mxCell>
        <mxCell id="7JcKZ25VjetRKdXFp0mx-11" value="Change Password" style="labelPosition=center;verticalLabelPosition=middle;align=center;html=1;shape=mxgraph.basic.button;dx=3;fillColor=#dae8fc;strokeColor=#6c8ebf;" vertex="1" parent="1">
          <mxGeometry x="210" y="340" width="210" height="60" as="geometry" />
        </mxCell>
      </root>
    </mxGraphModel>
  </diagram>
</mxfile>
